<svg width="24" height="24" viewBox="0 0 24 24" fill="none" xmlns="http://www.w3.org/2000/svg">
<path d="M17 8C18.156 8 19.185 8.376 19.904 9.095C20.624 9.815 21 10.842 21 11.998C21 13.081 20.81 13.958 20.29 14.649C19.878 15.195 19.21 15.521 18.52 15.862C18.518 16.959 18.54 17.37 19.4 18.874C19.786 19.551 19.012 20.294 18.352 19.881C16.328 18.617 14.993 17.641 14.137 16.428C13.28 15.215 13 13.818 13 11.998C13 10.842 13.374 9.815 14.094 9.095C14.814 8.375 15.844 8 17 8ZM7 8C8.156 8 9.185 8.376 9.904 9.095C10.624 9.815 11 10.842 11 11.998C11 13.081 10.81 13.958 10.29 14.649C9.878 15.195 9.21 15.521 8.52 15.862C8.518 16.959 8.54 17.37 9.4 18.874C9.786 19.551 9.012 20.294 8.352 19.881C6.328 18.617 4.993 17.641 4.137 16.428C3.28 15.215 3 13.818 3 11.998C3 10.842 3.374 9.815 4.094 9.095C4.814 8.375 5.844 8 7 8Z" fill="#7495B4"/>
</svg>
