<svg width="24" height="24" viewBox="0 0 24 24" fill="none" xmlns="http://www.w3.org/2000/svg">
<path d="M7 8C5.844 8 4.815 8.376 4.096 9.095C3.376 9.815 3 10.842 3 11.998C3 13.081 3.19 13.958 3.71 14.649C4.122 15.195 4.79 15.521 5.48 15.862C5.482 16.959 5.46 17.37 4.6 18.874C4.214 19.551 4.988 20.294 5.648 19.881C7.672 18.617 9.007 17.641 9.863 16.428C10.72 15.215 11 13.818 11 11.998C11 10.842 10.626 9.815 9.906 9.095C9.186 8.375 8.156 8 7 8ZM17 8C15.844 8 14.815 8.376 14.096 9.095C13.376 9.815 13 10.842 13 11.998C13 13.081 13.19 13.958 13.71 14.649C14.122 15.195 14.79 15.521 15.48 15.862C15.482 16.959 15.46 17.37 14.6 18.874C14.214 19.551 14.988 20.294 15.648 19.881C17.672 18.617 19.007 17.641 19.863 16.428C20.72 15.215 21 13.818 21 11.998C21 10.842 20.626 9.815 19.906 9.095C19.186 8.375 18.156 8 17 8Z" fill="#7495B4"/>
</svg>
